<?xml version="1.0" encoding="UTF-8"?><svg id="b" xmlns="http://www.w3.org/2000/svg" width="333.31" height="100" viewBox="0 0 333.31 100"><g id="c"><rect x="112.88" y=".5" width="219.93" height="99" rx="8.42" ry="8.42" fill="#f5c518"/><path d="M324.39,1c4.37,0,7.92,3.55,7.92,7.92v82.16c0,4.37-3.55,7.92-7.92,7.92H121.3c-4.37,0-7.92-3.55-7.92-7.92V8.92c0-4.37,3.55-7.92,7.92-7.92h203.09M324.39,0H121.3c-4.91,0-8.92,4.01-8.92,8.92v82.16c0,4.91,4.01,8.92,8.92,8.92h203.09c4.91,0,8.92-4.01,8.92-8.92V8.92c0-4.91-4.01-8.92-8.92-8.92h0Z"/><path d="M152.89,15.97v68.06h-17.7V15.97h17.7Z"/><path d="M214.61,15.97v68.06h-15.47l-.02-45.95-6.16,45.95h-10.97l-6.5-44.9-.02,44.9h-15.47V15.97h22.9c.68,4.09,1.38,8.92,2.1,14.47l2.51,17.31,4.07-31.78h23.03Z"/><path d="M221.71,15.97h13.24c8.55,0,14.33.39,17.34,1.18,3.01.78,5.3,2.07,6.87,3.87s2.55,3.79,2.94,5.99.59,6.52.59,12.97v23.84c0,6.11-.29,10.2-.86,12.25-.57,2.06-1.58,3.67-3.01,4.84s-3.2,1.97-5.3,2.44c-2.1.46-5.27.69-9.5.69h-22.32V15.97ZM239.41,27.61v44.77c2.55,0,4.12-.51,4.71-1.53.59-1.02.88-3.8.88-8.34v-26.44c0-3.08-.1-5.06-.29-5.93s-.64-1.51-1.35-1.91c-.7-.41-2.02-.61-3.95-.61Z"/><path d="M269.3,15.97h17.66c5.58,0,9.8.43,12.68,1.3,2.87.87,5.19,2.63,6.96,5.27s2.65,6.91,2.65,12.79c0,3.98-.62,6.75-1.87,8.32-1.25,1.57-3.71,2.77-7.38,3.61,4.09.92,6.87,2.46,8.32,4.61,1.46,2.15,2.19,5.43,2.19,9.86v6.31c0,4.6-.53,8.01-1.58,10.22-1.05,2.22-2.73,3.73-5.02,4.54-2.3.81-7.01,1.22-14.13,1.22h-20.47V15.97ZM287,27.61v15.13c.76-.03,1.35-.04,1.77-.04,1.74,0,2.84-.43,3.32-1.28.48-.85.71-3.3.71-7.34,0-2.13-.2-3.62-.59-4.48s-.9-1.39-1.53-1.62c-.63-.22-1.86-.35-3.68-.38ZM287,53.34v19.04c2.49-.08,4.08-.48,4.77-1.18s1.03-2.42,1.03-5.17v-6.35c0-2.91-.31-4.68-.92-5.3s-2.24-.97-4.88-1.05Z"/><path d="M.97,80.96c-.9-.54-1.22-1.71-.77-2.65.13-.31.27-.54.4-.77,1.08-1.53,2.39-2.83,3.92-3.96.72-.54,1.53-.9,2.43-.99.32.04.58.23.77.58.09.23.09.63-.09.9l-.27.14c-.14.13-.27.22-.41.27-2.11.81-3.55,2.43-4.77,4.27-.04.09-.09.27-.04.5.04.09.22.23.31.27.94.23,1.84.27,2.74.09,2.12-.27,4.23-.81,6.3-1.53,5.13-1.71,9.9-4.46,13.95-7.96.99-.9,1.84-1.8,2.65-2.83.58-.76,1.12-1.62,1.44-2.56.54-1.44.13-3.02-1.04-4.05-.72-.72-1.57-1.22-2.47-1.58-1.85-.72-3.73-1.35-5.71-1.84-1.58-.36-3.15-.58-4.73-.81-.63-.14-1.26-.23-1.89-.31-1.89-.36-3.73-.72-5.62-1.04-1.12-.18-2.25-.5-3.28-.9-.9-.31-1.67-.72-2.43-1.26-1.66-1.22-2.38-3.33-1.75-5.35.36-1.26.9-2.52,1.62-3.69,1.44-2.38,3.15-4.54,5.13-6.52,5.98-6.12,12.87-11.34,20.43-15.25,3.87-1.98,7.92-3.56,12.06-4.59,2.52-.68,5.17-.99,7.74-.99,1.44-.04,2.88.27,4.14.99,2.11,1.03,3.24,3.46,2.61,5.8-.4,1.75-1.12,3.42-2.02,4.99-2.02,3.29-4.54,6.21-7.56,8.64l-.41.27c-.22.18-.45.31-.72.45-.5.4-1.12.4-1.67-.04-.45-.36-.58-1.04-.23-1.53.45-.81.94-1.57,1.44-2.29.14-.31.41-.5.77-.63.31-.04.63.09.9.31.09.14.27.18.36.18.14.04.36,0,.5-.18,2.07-2.07,3.96-4.41,5.35-7.02.18-.36.31-.68.45-.99.18-.31.31-.67.5-.99.31-.72.45-1.58.45-2.38.05-1.94-1.17-2.88-2.47-3.29-.72-.13-1.4-.27-2.16-.31-1.89-.13-3.73.04-5.58.45-4.14.81-8.1,2.16-11.79,3.96-4,1.94-7.78,4.19-11.34,6.84-2.21,1.58-4.27,3.24-6.34,5.04-2.83,2.52-5.44,5.26-7.74,8.32-.9,1.17-1.71,2.56-2.25,3.96-.18.63-.36,1.26-.41,1.89-.04,1.03.45,2.02,1.35,2.61.99.67,2.07,1.08,3.29,1.35,2.47.4,9.04,1.48,9.85,1.66.36.05.72.14,1.08.23l1.3.27c2.65.41,5.17,1.21,7.65,2.29.81.41,1.57.9,2.29,1.4,1.39.99,2.38,2.52,2.52,4.18.05.63,0,1.31-.18,1.85-.68,1.98-1.71,3.73-3.19,5.22-1.8,1.84-3.87,3.46-6.07,4.9-4.23,2.7-8.86,4.77-13.72,6.03-1.53.36-3.19.58-4.77.72-.99.14-1.98-.18-2.79-.72Z" fill="#fff"/><path d="M35.98,66.69c-.81-4.45,3.46-11.02,10.3-13.14.54-.18,1.03-.18,1.53-.18,1.67-.04,2.52,1.21,1.89,2.83-.27.81-.72,1.53-1.31,2.16-.45.49-.94.94-1.4,1.35-.18.14-.4.27-.63.36-.36.14-.77.05-.94-.22-.27-.27-.27-.68-.14-1.04.31-.5.58-.94,1.26-.99.13,0,.27-.09.36-.23.36-.5,1.57-1.94,1.21-2.43-.23-.27-1.08-.09-1.44,0-1.04.27-1.98.72-2.83,1.35-2.11,1.44-4.05,2.97-5.22,5.62-1.21,2.7-1.62,6.34,2.25,5.49,2.07-.45,4.63-1.8,7.2-3.29,3.96-2.29,7.78-5.04,9.49-5.71.23-.09.45-.18.67-.18.41,0,.9.27.99.58.09.45-.09.99-.5,1.12-1.75.5-3.1,1.53-4.63,2.47-.81.54-2.38,1.53-4.23,2.66-1.62.99-3.46,2.07-5.17,2.88-4.09,2.02-8.1,2.16-8.73-1.49Z" fill="#fff"/><path d="M53.57,69.08c-.27-1.08-.23-2.21.04-3.29.85-3.24,2.61-6.16,5.08-8.46.63-.63,1.12-1.26,1.62-1.98.63-1.04,1.44-2.02,2.38-2.83,1.4-1.26,3.51-1.26,4.95-.04.85.81,1.48,1.89,1.44,3.06l-.04.9c-.09,1.48-.5,2.97-1.26,4.27-1.75,3.42-4.27,6.39-7.38,8.68-1.08.9-2.34,1.53-3.73,1.75-1.62.27-2.75-.5-3.1-2.07ZM55.69,69.26c.23.18.54.18.81.09.31-.04.63-.09.95-.27.63-.31,1.26-.72,1.84-1.12,2.16-1.62,4-3.51,5.49-5.71.9-1.26,1.62-2.61,2.11-4.09.18-.41.27-.81.31-1.21-.04-1.17-.58-1.67-1.71-1.49-.27,0-.5.05-.77.14-1.12.36-2.11.85-3.06,1.53-.45.36-.81.81-1.03,1.35-.45,1.03-.95,2.07-.68,3.28v.14c0,.36-.27.72-.72.81-.41.13-.85-.09-.99-.5-.09-.31-.18-.63-.31-1.21-1.26,1.57-2.11,3.42-2.56,5.4-.09.68-.18,1.44-.09,2.16,0,.27.13.58.4.72ZM65.45,53.42c-.49-.18-1.03,0-1.26.41.09.13,1.21-.31,1.26-.41Z" fill="#fff"/><path d="M68.6,84.83c-.18-.22-.22-.49-.18-.72.09-.4.22-.81.4-1.21.54-1.08,1.08-2.16,1.62-3.19,3.42-6.52,15.7-28.03,15.34-27.67-.27.27-7.11,10.17-8.05,11.29-1.53,1.84-3.15,3.6-4.95,5.22-.99.9-3.24,2.38-4.63,1.4-1.44-1.04-.31-4.81.23-6.12.9-2.2,1.84-4.41,2.97-6.52,3.33-6.3,7.2-12.24,11.02-18.22.81-1.3,1.67-2.61,2.43-3.91.13-.27.22-.54.27-.81-.5,0-.95-.04-1.35,0l-17.5.14c-.31,0-.67,0-.99.04-1.89.23-3.78.31-5.67.27-1.04-.09-2.02.13-2.97.58-.41.13-.9-.04-1.08-.45-.18-.27-.31-.58-.36-.94-.09-.27,0-.58.18-.81.18-.27.45-.4.77-.4.58-.05,1.17-.05,1.8-.05l26.46-.22c2.34,0,2.16.09,3.46-1.94l3.92-6.03c.49-.72.94-1.44,1.48-2.11.27-.36.58-.63.9-.9.27-.23.67-.23.94-.09.41.23.63.63.63,1.08-.22.81-.54,1.62-.99,2.34-.85,1.58-1.8,3.1-2.7,4.68-.41.72-.77,1.49-1.17,2.25-.05.27.09.54.36.58h5.62c.36,0,.68-.18.9-.49.27-.32.54-.63.77-.99l8.5-12.37c.36-.5.63-1.03.99-1.53.18-.18.36-.31.58-.5.31-.13.67-.13.99.04.27.14.4.5.31.85-.09.41-.27.81-.5,1.17-.81,1.31-1.67,2.56-2.52,3.87l-5.85,8.64-.36.67c-.05.14-.05.27,0,.36.04.14.13.23.27.23.22.04.49.09.76.09,4.54.05,9.09.05,13.59.05,2.52-.05,5-.14,7.47-.14.85-.04,1.71,0,2.56.04.36.04.68.09.99.23.4.18.63.58.63,1.04-.09.31-.36.58-.68.72-.22.09-.49.14-.72.18-.77.04-1.57.04-2.34.04-6.75,0-13.5-.04-20.29-.09-1.12,0-2.2-.09-3.33-.18-.36,0-.67.18-.9.45-.41.54-.77,1.12-1.12,1.71-2.12,3.33-4.19,6.66-6.25,10.03-1.67,2.75-3.33,5.54-4.99,8.37-2.79,4.81-5.53,9.63-8.15,14.53-1.62,3.1-3.33,6.21-4.95,9.27-.94,1.84-1.98,3.6-2.61,5.58-.04.18-.13.31-.23.45-.27.36-.67.54-1.12.5-.27-.05-.5-.18-.63-.36ZM71.75,66.83c4.27-4.36,6.3-6.97,9.67-11.61,3.15-4.32,6.16-8.64,9.22-13,1.48-2.07,2.92-4.18,4.36-6.3.23-.36.4-.77.58-1.08-.13-.18-.23-.41-.31-.45-1.71-.23-3.42-.04-5.13-.09-.54,0-.99.31-1.21.77l-.5.94c-.13.27-.31.5-.58.63-.31.09-.63.09-.9-.04-.23-.09-.54,0-.67.18-.23.27-.45.54-.63.85-3.29,5.08-6.57,10.21-9.67,15.43-1.71,2.92-3.33,5.98-4.77,9.09-.67,1.48-1.21,3.01-1.66,4.54-.63,1.94.85,1.49,2.2.14Z" fill="#fff"/><path d="M88.63,21.61c0-.27.09-.5.18-.77,1.03-1.75,2.11-3.46,3.19-5.22.18-.27.45-.5.72-.67.27-.18.58-.18.85-.04.27.09.45.36.54.63.09.54,0,1.03-.36,1.44-1.26,1.4-2.11,3.06-3.15,4.63-.13.23-.31.4-.5.58l-.63.27c-.45,0-.9-.5-.85-.85Z" fill="#fff"/><path d="M80.75,78.3c-.27-.41-.4-.95-.27-1.44.14-.68.41-1.31.85-1.85.77-.99,1.62-1.89,2.52-2.7,2.92-2.48,5.98-4.72,9.18-6.79q1.3-.85,1.67-2.38c.27-1.3.45-2.61.72-3.92.14-.72.31-1.44.54-2.11.9-2.74,4.86-6.52,6.93-4.68,1.75,1.57-.45,4.32-1.17,5.04-.54.54-.99.54-1.3.32-.36-.27-.45-.68-.18-1.17.4-.85,1.89-2.2,1.26-2.61-1.08-.72-3.15,1.94-3.64,3.15-.36.95-.58,1.94-.77,2.97l-.5,3.1c1.35-.76,2.56-1.48,3.78-2.2,2.43-1.35,4.64-2.48,5.08-2.52.72-.13,1.12.4,1.04.9,0,.31-.45.58-.68.72-2.16,1.08-3.6,1.84-5.67,3.1-1.17.68-2.34,1.44-3.51,2.12-.54.27-.94.72-1.17,1.3-.72,1.8-1.62,3.46-2.74,5.04-1.53,2.34-3.55,4.32-5.9,5.85-.99.63-2.11,1.12-3.28,1.4-.5.09-1.04.09-1.53.04-.5-.04-.95-.27-1.26-.67ZM83.36,77.13l.85-.27c.99-.31,1.85-.9,2.66-1.53,2.47-1.84,4.27-4.23,5.76-6.93l.13-.45c-.27.13-.4.18-.54.27-2.38,1.57-4.68,3.28-6.84,5.13-.99.81-1.89,1.75-2.61,2.79-.18.27-.54.58-.22.9.13.14.54.09.81.09Z" fill="#fff"/></g></svg>